<svg xmlns="http://www.w3.org/2000/svg" width="16" height="16" viewBox="1 0 16 16"><path fill-rule="evenodd" fill="#323E42" d="M14.03.029c-1.535.382-4.533 1.243-6.06 1.687-.826.241-.947.785-.947 1.378v1.02l5.985-1.47v10.71l-5.985-1.469v1.053c0 .548.206 1.101.977 1.353 1.551.449 4.557 1.311 6.071 1.688.691.147.917-.203.917-.821V.781c-.001-.538-.307-.943-.955-.752m-5.03 7.518S7.547 6.359 6.426 5.405c-1.22-.952-1.439-.267-1.439.263v1.301H1.005v2h3.981v1.314c0 .529.219 1.216 1.439.264 1.122-.953 2.577-2.143 2.577-2.143a.634.634 0 0 0 .001-.857"/></svg>