<svg xmlns="http://www.w3.org/2000/svg" width="16" height="16" viewBox="-1 0 16 16"><path fill-rule="evenodd" fill="#323E42" d="M2.994 2.644l5.986 1.47v-1.02c0-.593-.122-1.137-.947-1.378C6.503 1.273 3.505.411 1.973.029c-.649-.191-.955.214-.955.752v14.375c0 .618.225.969.917.821 1.514-.377 4.52-1.238 6.07-1.688.771-.252.978-.805.978-1.353v-1.053l-5.986 1.469V2.644m12 4.903s-1.455-1.188-2.577-2.142c-1.22-.952-1.439-.267-1.439.263v1.301H4.999v2h5.981v1.314c0 .529.22 1.216 1.439.264 1.122-.953 2.577-2.143 2.577-2.143a.634.634 0 0 0 .001-.857"/></svg>