<svg width="20" height="18" viewBox="0 0 20 18" xmlns="http://www.w3.org/2000/svg"><title>Icn_LogIn</title><path d="M11.414 8H.994a1 1 0 0 0 0 2h10.42l-1.128 1.128a1 1 0 0 0 .007 1.408.993.993 0 0 0 1.408.006L15.243 9l-.707-.707L11.7 5.458a1 1 0 0 0-1.408.006.993.993 0 0 0-.007 1.408L11.414 8zM4 12v2.005A3.998 3.998 0 0 0 7.996 18h8.008A3.995 3.995 0 0 0 20 14.005V3.995A3.998 3.998 0 0 0 16.004 0H7.996A3.995 3.995 0 0 0 4 3.995V6h2V4.006A2.01 2.01 0 0 1 8.009 2h7.982C17.101 2 18 2.897 18 4.006v9.988A2.009 2.009 0 0 1 15.991 16H8.01A2.007 2.007 0 0 1 6 13.994V12H4z" fill="#059E87" fill-rule="evenodd"/></svg>