<svg width="88" height="18" viewBox="0 0 88 18" xmlns="http://www.w3.org/2000/svg"><path d="M39.864 13.125c.016-.002.026-.01.03-.027l.886-2.816c.892 1.31 1.777 3.034 2.252 4.853h1.454l.72-2.305c.006-.023.023-.03.046-.03.025 0 .042.01.045.03.218 1.448 1.62 2.42 3.61 2.42 1.285 0 2.446-.346 2.736-.504l.753-2.436h2.893l.294-.944H52.69l.5-1.598h3.447l.3-.978h-4.843l-1.644 5.274c-.35.09-.78.134-1.23.134-.97 0-1.748-.236-2.188-.764-.33-.396-.462-.907-.38-1.477.195-1.36 1.485-2.218 3.21-2.218.362 0 .735.022 1.07.066l.343-1.025a9.452 9.452 0 0 0-1.413-.092c-1.53 0-2.86.54-3.722 1.492-.027.03-.054.03-.07.03-.028 0-.046-.006-.04-.03l.434-1.39H45.2l-1.38 4.448c-.44-1.313-1.345-3.038-2.45-4.448h-1.357L39 12.028c.125.096.23.185.317.27-.434-.358-1.055-.644-1.61-.907-.914-.43-1.538-.655-1.388-1.09.177-.514 1.096-.708 1.928-.69.42.01.72.062 1.063.14l.305-.93a7.23 7.23 0 0 0-1.266-.13c-1.67-.038-3.18.412-3.566 1.365-.46 1.13.843 1.767 1.974 2.29.897.416 1.606.812 1.357 1.33-.194.403-.83.592-1.752.572a6.585 6.585 0 0 1-2.583-.63l-.468.988c.578.263 1.77.62 2.788.642 1.91.043 3.146-.426 3.64-1.444a1.13 1.13 0 0 0 .124-.678zM32 3.475v13.09a.42.42 0 0 0 .422.435h23.732c.214 0 .384-.018.484-.296 0 0 2.406-7.41 2.448-7.545.09-.282.03-.423-.212-.576C51.144 3.71 39.586 3 34.337 3c-.753 0-1.376.015-1.84.034-.3.012-.497.15-.497.442z" fill="#C3C3C3" fill-rule="evenodd"/></svg>