<svg width="29" height="15" viewBox="0 0 29 15" xmlns="http://www.w3.org/2000/svg" fill-rule="evenodd" clip-rule="evenodd" stroke-linejoin="round" stroke-miterlimit="1.414"><clipPath id="a"><path d="M.525 0C.225.075 0 .224 0 .522v14.03c0 .224.15.448.45.448h25.2c.225 0 .375 0 .525-.3 0 0 2.55-7.984 2.625-8.133.075-.298 0-.448-.225-.597C20.325.746 8.025 0 2.475 0H.525"/></clipPath><g clip-path="url(#a)"><path fill="url(#b)" d="M0 0h28.875v15H0z"/></g><g fill="#fff" fill-rule="nonzero"><path d="M8.325 10.746H8.4l.975-2.91c.975 1.343 1.875 3.134 2.4 5h1.575l.75-2.388h.15c.225 1.492 1.725 2.462 3.825 2.462 1.35 0 2.625-.373 2.925-.522l.825-2.537H24.9l.3-.97h-3.075l.525-1.64h3.6l.3-1.046h-5.175l-1.725 5.448c-.375.074-.825.15-1.275.15-1.05 0-1.875-.225-2.325-.822-.375-.448-.525-.97-.375-1.492.225-1.418 1.575-2.314 3.45-2.314.375 0 .75 0 1.125.075l.375-1.046c-.45-.075-.975-.075-1.5-.075-1.65 0-3.075.522-3.975 1.567H15l.45-1.418H14.1l-1.5 4.626c-.45-1.344-1.425-3.135-2.625-4.627H8.55L7.5 9.626c.525.448.75.746.825 1.12"/><path d="M5.775 9.03c-.9-.448-1.575-.672-1.425-1.12.15-.522 1.125-.746 1.95-.746.45 0 .75.075 1.05.15l.3-.97c-.45-.075-.75-.15-1.275-.15-1.725-.075-3.225.448-3.6 1.418C2.325 8.806 3.6 9.402 4.8 10c.9.448 1.65.82 1.35 1.343-.225.448-.825.597-1.8.597-.825 0-1.8-.224-2.625-.67l-.45 1.043c.6.3 1.8.672 2.85.672 1.95.075 3.15-.448 3.675-1.492.6-1.194-.9-1.94-2.025-2.463"/></g><defs><linearGradient id="b" x2="1" gradientUnits="userSpaceOnUse" gradientTransform="matrix(28.7516 0 0 28.6086 .003 7.518)"><stop offset="0%" stop-color="#832c71"/><stop offset="24%" stop-color="#ac227c"/><stop offset="81%" stop-color="#e12228"/><stop offset="100%" stop-color="#e12228"/></linearGradient></defs></svg>